<?xml version="1.0" encoding="utf-8"?>
<!-- Generator: Adobe Illustrator 25.0.0, SVG Export Plug-In . SVG Version: 6.00 Build 0)  -->
<svg version="1.1" id="Слой_1" xmlns="http://www.w3.org/2000/svg" xmlns:xlink="http://www.w3.org/1999/xlink" x="0px" y="0px"
	 viewBox="0 0 12 16" style="enable-background:new 0 0 12 16;" xml:space="preserve">
<path d="M12,14V4.5L7.5,0H2C0.9,0,0,0.9,0,2v12c0,1.1,0.9,2,2,2h8C11.1,16,12,15.1,12,14z M7.5,3c0,0.8,0.7,1.5,1.5,1.5h2V14
	c0,0.6-0.4,1-1,1H2c-0.5,0-1-0.4-1-1V2c0-0.5,0.5-1,1-1h5.5V3z"/>
<path d="M7.6,9.1c0,0.9-0.7,1.5-1.6,1.5S4.4,9.9,4.4,9.1S5.1,7.5,6,7.5S7.6,8.2,7.6,9.1z"/>
<path d="M1,9.1c0,0,1.9-3.4,5-3.4s5,3.4,5,3.4s-1.9,3.4-5,3.4S1,9.1,1,9.1z M6,11.3c1.2,0,2.2-1,2.2-2.2S7.2,6.9,6,6.9
	s-2.2,1-2.2,2.2S4.8,11.3,6,11.3z"/>
</svg>
