<?xml version="1.0" encoding="utf-8"?>
<!-- Generator: Adobe Illustrator 25.0.0, SVG Export Plug-In . SVG Version: 6.00 Build 0)  -->
<svg version="1.1" id="Слой_1" xmlns="http://www.w3.org/2000/svg" xmlns:xlink="http://www.w3.org/1999/xlink" x="0px" y="0px"
	 viewBox="0 0 12 16" style="enable-background:new 0 0 12 16;" xml:space="preserve">
<path d="M12,14V4.5L7.5,0H2C0.9,0,0,0.9,0,2v12c0,1.1,0.9,2,2,2h8C11.1,16,12,15.1,12,14z M7.5,3c0,0.83,0.67,1.5,1.5,1.5h2V14
	c0,0.55-0.45,1-1,1H2c-0.55,0-1-0.45-1-1V2c0-0.55,0.45-1,1-1h5.5V3z"/>
<path d="M2.6,14.09c-0.19-0.08-0.35-0.23-0.44-0.42c-0.19-0.39-0.13-0.78,0.08-1.1c0.2-0.31,0.53-0.57,0.9-0.79
	c0.47-0.27,0.97-0.48,1.48-0.65c0.4-0.72,0.75-1.46,1.06-2.23C5.5,8.49,5.36,8.06,5.26,7.61c-0.09-0.4-0.12-0.8-0.05-1.14
	C5.28,6.12,5.48,5.8,5.86,5.65c0.19-0.08,0.4-0.12,0.6-0.08c0.21,0.04,0.38,0.18,0.48,0.36C7.03,6.1,7.06,6.3,7.07,6.48
	c0.01,0.19-0.01,0.4-0.05,0.61C6.94,7.6,6.75,8.23,6.5,8.89c0.28,0.59,0.6,1.15,0.98,1.69c0.45-0.04,0.89-0.02,1.33,0.05
	c0.36,0.07,0.73,0.19,0.96,0.47c0.12,0.14,0.19,0.32,0.2,0.52c0.01,0.19-0.05,0.38-0.14,0.56c-0.08,0.17-0.2,0.31-0.35,0.42
	c-0.15,0.1-0.33,0.15-0.51,0.14c-0.33-0.01-0.65-0.2-0.93-0.42c-0.34-0.28-0.64-0.6-0.91-0.95c-0.68,0.08-1.34,0.21-2,0.41
	c-0.3,0.53-0.64,1.03-1.02,1.51c-0.29,0.35-0.61,0.66-0.93,0.79C3,14.14,2.79,14.15,2.6,14.09z M3.98,12.19
	c-0.17,0.08-0.32,0.16-0.46,0.24c-0.33,0.19-0.54,0.38-0.65,0.55c-0.09,0.15-0.1,0.25-0.04,0.36c0.01,0.02,0.02,0.04,0.03,0.04
	c0.01,0,0.02-0.01,0.03-0.01c0.14-0.06,0.36-0.23,0.64-0.57C3.69,12.6,3.84,12.39,3.98,12.19z M5.62,10.86
	c0.33-0.08,0.67-0.14,1.01-0.19c-0.18-0.28-0.35-0.56-0.51-0.86C5.97,10.16,5.8,10.51,5.62,10.86L5.62,10.86z M8.07,11.31
	c0.15,0.16,0.3,0.3,0.44,0.41c0.24,0.19,0.41,0.25,0.5,0.26c0.02,0,0.05,0,0.07-0.02c0.04-0.03,0.07-0.08,0.09-0.12
	c0.04-0.06,0.06-0.13,0.06-0.2c0-0.02-0.01-0.05-0.03-0.06c-0.05-0.06-0.2-0.15-0.52-0.21C8.48,11.33,8.27,11.31,8.07,11.31
	L8.07,11.31z M6.08,7.8c0.08-0.27,0.15-0.55,0.2-0.83c0.03-0.19,0.04-0.34,0.04-0.47c0-0.07-0.01-0.13-0.03-0.2
	c-0.05,0.01-0.1,0.02-0.15,0.04c-0.09,0.03-0.16,0.11-0.2,0.28C5.9,6.82,5.91,7.1,5.99,7.45C6.01,7.57,6.04,7.68,6.08,7.8L6.08,7.8z
	"/>
</svg>
