<?xml version="1.0" encoding="utf-8"?>
<!-- Generator: Adobe Illustrator 25.0.0, SVG Export Plug-In . SVG Version: 6.00 Build 0)  -->
<svg version="1.1" id="Слой_1" xmlns="http://www.w3.org/2000/svg" xmlns:xlink="http://www.w3.org/1999/xlink" x="0px" y="0px"
	 viewBox="0 0 12 16" style="enable-background:new 0 0 12 16;" xml:space="preserve">
<path d="M3.88,6.68C3.71,6.46,3.4,6.43,3.18,6.6S2.93,7.09,3.1,7.3c0,0.01,0.01,0.01,0.02,0.02L5.35,10l-2.23,2.68
	c-0.17,0.22-0.14,0.53,0.08,0.7c0.21,0.17,0.51,0.14,0.69-0.06L6,10.78l2.12,2.54c0.18,0.21,0.49,0.24,0.7,0.06
	c0.21-0.18,0.24-0.49,0.06-0.7l0,0L6.65,10l2.23-2.68C9.06,7.1,9.02,6.79,8.8,6.62C8.59,6.45,8.29,6.48,8.12,6.68L6,9.22L3.88,6.68
	L3.88,6.68z"/>
<path d="M12,14V4.5L7.5,0H2C0.9,0,0,0.9,0,2v12c0,1.1,0.9,2,2,2h8C11.1,16,12,15.1,12,14z M7.5,3c0,0.83,0.67,1.5,1.5,1.5h2V14
	c0,0.55-0.45,1-1,1H2c-0.55,0-1-0.45-1-1V2c0-0.55,0.45-1,1-1h5.5V3z"/>
</svg>
