<?xml version="1.0" encoding="utf-8"?>
<!-- Generator: Adobe Illustrator 25.0.0, SVG Export Plug-In . SVG Version: 6.00 Build 0)  -->
<svg version="1.1" id="Слой_1" xmlns="http://www.w3.org/2000/svg" xmlns:xlink="http://www.w3.org/1999/xlink" x="0px" y="0px"
	 viewBox="0 0 12 16" style="enable-background:new 0 0 12 16;" xml:space="preserve">
<path d="M12,4.5V14c0,1.1-0.9,2-2,2H2c-1.1,0-2-0.9-2-2V2c0-1.1,0.9-2,2-2h5.5L12,4.5z M9,4.5C8.2,4.5,7.5,3.8,7.5,3V1H2
	C1.5,1,1,1.5,1,2v12c0,0.6,0.5,1,1,1h8c0.6,0,1-0.4,1-1V4.5H9z"/>
<path d="M11,9.1c0,0-1.9-3.4-5-3.4S1,9.1,1,9.1s1.9,3.4,5,3.4S11,9.1,11,9.1z M1.7,9.1c0.3-0.4,0.6-0.9,1-1.3C3.6,7,4.7,6.3,6,6.3
	S8.4,7,9.3,7.8c0.4,0.4,0.7,0.8,1,1.3c0,0.1-0.1,0.1-0.1,0.2C10,9.6,9.7,10,9.3,10.4c-0.8,0.8-1.9,1.5-3.2,1.5s-2.4-0.7-3.2-1.5
	C2.4,10,2,9.5,1.7,9.1L1.7,9.1z"/>
<path d="M6,7.5c-0.9,0-1.6,0.7-1.6,1.6c0,0.9,0.7,1.6,1.6,1.6S7.6,10,7.6,9.1C7.6,8.2,6.9,7.5,6,7.5z M3.8,9.1c0-1.2,1-2.2,2.2-2.2
	s2.2,1,2.2,2.2s-1,2.2-2.2,2.2S3.8,10.3,3.8,9.1z"/>
</svg>
